# xmcd
#
# Track frame offsets: 
#        183
#        14403
#        28903
#        44430
#        57863
#        81968
#        93115
#        114800
#        129833
#        145448
#        160240
#        171940
#        184273
#        201595
#
# Disc length: 3045 seconds
#
# Revision: 4
# Processed by: cddbd v1.5.1PL0 Copyright (c) Steve Scherf et al.
# Submitted via: ExactAudioCopy v0.95b2
#
DISCID=bf0be30e
DTITLE=Various Artist - Born with the Blues
DYEAR=1900
DGENRE=Blues
TTITLE0=John Lee Hooker - Stomp Boogie
TTITLE1=Billy Boy Arnold with Tony McPhee - I Wish You Would
TTITLE2=Bo Bidley - Road Runner (Live)
TTITLE3=Jimmy Reed - Hard Walkin' Hana
TTITLE4=Jimmy Johnson - When My First Wife Quit Me
TTITLE5=Memphis Slim - Lonesome
TTITLE6=Buster Benton and Carey Bell - Born With The Blues
TTITLE7=Louisiana Red - Alabama Train
TTITLE8=Sunnyland Slim - I Had It So Hard
TTITLE9=Billy Boy Arnold with Tony McPhee - Don't Stay Out All Night
TTITLE10=Memphis Slim - Let The Good Times Roll
TTITLE11=JohnLee Hooker - House Rent Boogie
TTITLE12=Jimmy Reed - Cry Before I Go
TTITLE13=Bo Didley - Don't Know Where I've Been
EXTD=
EXTT0=John Lee Hooker
EXTT1=Billy Boy Arnold w/Tony McPhee
EXTT2=Bo Diddley
EXTT3=Jimmy Reed
EXTT4=Jimmy Johnson
EXTT5=Memphis Slim
EXTT6=Buster Benton and Carey Bell
EXTT7=Louisiana Red
EXTT8=Sunnyland Slim
EXTT9=Billy Boy Arnold w/Tony McPhee
EXTT10=Memphis Slim
EXTT11=John Lee Hooker
EXTT12=Jimmy Reed
EXTT13=Bo Diddley
PLAYORDER=
